<svg xmlns="http://www.w3.org/2000/svg" width="24" height="24" viewBox="0 0 24 24" fill="none">
  <path d="M15.2705 2C15.7674 2.00014 16.1699 2.40391 16.1699 2.90137V3.98242H20.0996C20.5966 3.98242 21 4.38529 21 4.88281V21.0986C21 21.5962 20.5967 22 20.0996 22H3.90039C3.40334 22 3 21.5962 3 21.0986V4.88281C3.00003 4.38529 3.40336 3.98242 3.90039 3.98242H7.1709V2.90137C7.1709 2.40385 7.5733 2.00004 8.07031 2C8.56736 2 8.9707 2.40382 8.9707 2.90137V3.98242H14.3701V2.90137C14.3701 2.40382 14.7735 2 15.2705 2ZM4.80078 20.1982H19.2002V11.1895H4.80078V20.1982ZM4.80078 9.3877H19.2002V5.78418H16.1699V6.50488C16.1697 7.00214 15.7673 7.40513 15.2705 7.40527C14.7736 7.40527 14.3704 7.00223 14.3701 6.50488V5.78418H8.9707V6.50488C8.97047 7.00223 8.56721 7.40527 8.07031 7.40527C7.57345 7.40523 7.17114 7.0022 7.1709 6.50488V5.78418H4.80078V9.3877Z" fill="#979CA5"/>
</svg>
