<svg xmlns="http://www.w3.org/2000/svg" width="24" height="24" viewBox="0 0 24 24" fill="none">
  <path d="M16.2705 2C16.7674 2.00014 17.1699 2.40391 17.1699 2.90137V3.98242H21.0996C21.5966 3.98242 22 4.38529 22 4.88281V21.0986C22 21.5962 21.5967 22 21.0996 22H4.90039C4.40334 22 4 21.5962 4 21.0986V4.88281C4.00003 4.38529 4.40336 3.98242 4.90039 3.98242H8.1709V2.90137C8.1709 2.40385 8.5733 2.00004 9.07031 2C9.56736 2 9.9707 2.40382 9.9707 2.90137V3.98242H15.3701V2.90137C15.3701 2.40382 15.7735 2 16.2705 2ZM5.80078 20.1982H20.2002V11.1895H5.80078V20.1982ZM5.80078 9.3877H20.2002V5.78418H17.1699V6.50488C17.1697 7.00214 16.7673 7.40513 16.2705 7.40527C15.7736 7.40527 15.3704 7.00223 15.3701 6.50488V5.78418H9.9707V6.50488C9.97047 7.00223 9.56721 7.40527 9.07031 7.40527C8.57345 7.40523 8.17114 7.0022 8.1709 6.50488V5.78418H5.80078V9.3877Z" fill="#979CA5"/>
</svg>
