<svg xmlns="http://www.w3.org/2000/svg" width="12" height="12" viewBox="0 0 12 12" fill="none">
  <path fill-rule="evenodd" clip-rule="evenodd" d="M1.88496 0.763875C1.73799 0.621926 1.54114 0.543381 1.33682 0.545157C1.1325 0.546932 0.937056 0.628886 0.792574 0.773368C0.648093 0.917849 0.566139 1.1133 0.564364 1.31762C0.562588 1.52194 0.641133 1.71878 0.783082 1.86575L4.90771 5.99038L0.783082 10.115C0.708655 10.1869 0.649289 10.2729 0.608449 10.3679C0.567608 10.463 0.546111 10.5653 0.545212 10.6687C0.544313 10.7722 0.56403 10.8748 0.603212 10.9706C0.642394 11.0664 0.700256 11.1534 0.773423 11.2265C0.84659 11.2997 0.933596 11.3576 1.02936 11.3967C1.12513 11.4359 1.22775 11.4556 1.33121 11.4547C1.43468 11.4538 1.53694 11.4324 1.63201 11.3915C1.72708 11.3507 1.81307 11.2913 1.88496 11.2169L6.00958 7.09225L10.1342 11.2169C10.2812 11.3588 10.478 11.4374 10.6823 11.4356C10.8867 11.4338 11.0821 11.3519 11.2266 11.2074C11.3711 11.0629 11.453 10.8675 11.4548 10.6631C11.4566 10.4588 11.378 10.262 11.2361 10.115L7.11146 5.99038L11.2361 1.86575C11.378 1.71878 11.4566 1.52194 11.4548 1.31762C11.453 1.1133 11.3711 0.917849 11.2266 0.773368C11.0821 0.628886 10.8867 0.546932 10.6823 0.545157C10.478 0.543381 10.2812 0.621926 10.1342 0.763875L6.00958 4.8885L1.88496 0.763875Z" fill="#040405"/>
  <path d="M10.6877 5.02175e-05C11.0348 0.00324117 11.3674 0.141683 11.6129 0.387144C11.8583 0.632605 11.9968 0.965161 11.9999 1.31226C12.003 1.65945 11.8699 1.99467 11.6288 2.24448L7.8822 5.98935L11.6288 9.73599C11.8701 9.98582 12.003 10.3209 11.9999 10.6682C11.9969 11.0154 11.8583 11.3478 11.6129 11.5933C11.3674 11.8388 11.0348 11.9772 10.6877 11.9804C10.3405 11.9834 10.0054 11.8505 9.75552 11.6093L6.00888 7.86267L2.27111 11.6022L2.26934 11.6004C2.14839 11.724 2.00565 11.8251 1.84673 11.8934C1.68531 11.9626 1.51098 11.9984 1.33534 12C1.15964 12.0014 0.984795 11.9688 0.822176 11.9023C0.659493 11.8357 0.511444 11.7372 0.38714 11.6129C0.262836 11.4886 0.164315 11.3405 0.0977074 11.1778C0.0311741 11.0152 -0.00140084 10.8404 4.61574e-05 10.6647C0.0015724 10.489 0.0373574 10.3147 0.106586 10.1533C0.175017 9.99397 0.275588 9.85001 0.399569 9.72889L4.13556 5.98935L0.390691 2.24448C0.14947 1.99465 0.0165607 1.65954 0.0195784 1.31226C0.0227702 0.965162 0.161212 0.632604 0.406672 0.387144C0.652204 0.141712 0.984641 0.00314187 1.33179 5.02175e-05C1.59227 -0.00221332 1.8458 0.0721614 2.06159 0.211354L2.26401 0.371163L6.00888 4.11603L9.75552 0.371163C10.0053 0.130058 10.3406 -0.00296673 10.6877 5.02175e-05ZM10.6823 0.545157C10.478 0.543381 10.2812 0.621926 10.1342 0.763875L6.00958 4.8885L1.88496 0.763875C1.73799 0.621926 1.54114 0.543381 1.33682 0.545157C1.1325 0.546932 0.937056 0.628886 0.792574 0.773368C0.648093 0.917849 0.566139 1.1133 0.564364 1.31762C0.562588 1.52194 0.641133 1.71878 0.783082 1.86575L4.90771 5.99038L0.783082 10.115C0.708655 10.1869 0.649289 10.2729 0.608449 10.3679C0.567608 10.463 0.546111 10.5653 0.545212 10.6687C0.544313 10.7722 0.56403 10.8748 0.603212 10.9706C0.642394 11.0664 0.700256 11.1534 0.773423 11.2265C0.84659 11.2997 0.933596 11.3576 1.02936 11.3967C1.12513 11.4359 1.22775 11.4556 1.33121 11.4547C1.43468 11.4538 1.53694 11.4324 1.63201 11.3915C1.72708 11.3507 1.81307 11.2913 1.88496 11.2169L6.00958 7.09225L10.1342 11.2169C10.2812 11.3588 10.478 11.4374 10.6823 11.4356C10.8867 11.4338 11.0821 11.3519 11.2266 11.2074C11.3711 11.0629 11.453 10.8675 11.4548 10.6631C11.4566 10.4588 11.378 10.262 11.2361 10.115L7.11146 5.99038L11.2361 1.86575C11.378 1.71878 11.4566 1.52194 11.4548 1.31762C11.453 1.1133 11.3711 0.917849 11.2266 0.773368C11.0821 0.628886 10.8867 0.546932 10.6823 0.545157Z" fill="#040405"/>
</svg>
