<svg xmlns="http://www.w3.org/2000/svg" width="11" height="11" viewBox="0 0 11 11" fill="none">
  <path d="M9.66309 0C9.97676 0.00298393 10.2772 0.12876 10.499 0.350586C10.7208 0.572447 10.8457 0.872833 10.8486 1.18652C10.8514 1.50032 10.7315 1.80347 10.5137 2.0293L7.12598 5.41504L10.5137 8.80273C10.7316 9.02858 10.8514 9.33163 10.8486 9.64551C10.8458 9.95924 10.7208 10.2595 10.499 10.4814C10.2772 10.7033 9.97675 10.829 9.66309 10.832C9.34922 10.8348 9.04616 10.7141 8.82031 10.4961L5.43262 7.1084L2.05371 10.4893L2.05176 10.4883C1.94249 10.5999 1.81347 10.6912 1.66992 10.7529C1.52398 10.8155 1.36582 10.8482 1.20703 10.8496C1.04829 10.8509 0.890088 10.8209 0.743164 10.7607C0.596199 10.7005 0.461917 10.6113 0.349609 10.499C0.237546 10.3869 0.149013 10.2531 0.0888672 10.1064C0.0287155 9.95942 -0.00130821 9.80044 0 9.6416C0.00143983 9.48297 0.0341536 9.32548 0.0966797 9.17969C0.158546 9.03572 0.249271 8.90537 0.361328 8.7959L3.73926 5.41504L0.353516 2.0293C0.135439 1.80343 0.0148499 1.50048 0.0175781 1.18652C0.0205141 0.872786 0.146294 0.572456 0.368164 0.350586C0.590131 0.128753 0.890298 0.00280181 1.2041 0C1.4396 -0.00204643 1.66917 0.0655647 1.86426 0.191406L2.04688 0.335938L5.43262 3.72168L8.82031 0.335938C9.04614 0.118077 9.34929 -0.0027268 9.66309 0Z" fill="#F9F9FA"/>
</svg>
