<svg width="36" height="36" viewBox="0 0 36 36" fill="none" xmlns="http://www.w3.org/2000/svg">
<rect width="24" height="9" transform="translate(6 6)" fill="#4285F4"/>
<path d="M23.5908 3C24.3438 3 24.9539 3.61033 24.9541 4.36328V5.72754H30.4092C31.1621 5.72759 31.7723 6.3379 31.7725 7.09082V31.6367C31.7724 32.3898 31.1622 33 30.4092 33H5.86328C5.11036 32.9998 4.50005 32.3897 4.5 31.6367V7.09082C4.50019 6.33799 5.11045 5.72773 5.86328 5.72754H11.3184V4.36328C11.3186 3.61038 11.9287 3.00008 12.6816 3C13.4346 3 14.0457 3.61033 14.0459 4.36328V5.72754H22.2275V4.36328C22.2277 3.61035 22.8379 3.00004 23.5908 3ZM7.22754 30.2734H29.0459V16.6367H7.22754V30.2734ZM7.22754 13.9092H29.0459V8.45508H24.9541V9.81836C24.954 10.5714 24.3439 11.1816 23.5908 11.1816C22.8378 11.1816 22.2276 10.5714 22.2275 9.81836V8.45508H14.0459V9.81836C14.0458 10.5714 13.4347 11.1816 12.6816 11.1816C11.9287 11.1816 11.3185 10.5713 11.3184 9.81836V8.45508H7.22754V13.9092Z" fill="black"/>
</svg>
