<svg xmlns="http://www.w3.org/2000/svg" width="20" height="20" viewBox="0 0 20 20" fill="none">
  <path d="M11.668 9.16625H18.3346V10.8329H11.668V9.16625ZM6.66797 3.33292C6.22742 3.32265 5.78937 3.40186 5.38032 3.56574C4.97126 3.72962 4.59969 3.97478 4.2881 4.28638C3.9765 4.59797 3.73134 4.96954 3.56746 5.37859C3.40358 5.78765 3.32437 6.2257 3.33464 6.66625C3.32437 7.10679 3.40358 7.54484 3.56746 7.9539C3.73134 8.36296 3.9765 8.73452 4.2881 9.04612C4.59969 9.35772 4.97126 9.60287 5.38032 9.76676C5.78937 9.93064 6.22742 10.0098 6.66797 9.99958C7.10851 10.0098 7.54656 9.93064 7.95562 9.76676C8.36468 9.60287 8.73624 9.35772 9.04784 9.04612C9.35944 8.73452 9.60459 8.36296 9.76848 7.9539C9.93236 7.54484 10.0116 7.10679 10.0013 6.66625C10.0116 6.2257 9.93236 5.78765 9.76848 5.37859C9.60459 4.96954 9.35944 4.59797 9.04784 4.28638C8.73624 3.97478 8.36468 3.72962 7.95562 3.56574C7.54656 3.40186 7.10851 3.32265 6.66797 3.33292ZM6.66797 8.33292C6.44626 8.34363 6.22476 8.30786 6.0177 8.22789C5.81064 8.14793 5.62259 8.02554 5.46563 7.86858C5.30868 7.71163 5.18629 7.52358 5.10632 7.31652C5.02636 7.10946 4.99058 6.88796 5.0013 6.66625C4.99058 6.44454 5.02636 6.22304 5.10632 6.01598C5.18629 5.80892 5.30868 5.62087 5.46563 5.46391C5.62259 5.30696 5.81064 5.18457 6.0177 5.1046C6.22476 5.02464 6.44626 4.98886 6.66797 4.99958C6.88968 4.98886 7.11118 5.02464 7.31824 5.1046C7.5253 5.18457 7.71335 5.30696 7.8703 5.46391C8.02726 5.62087 8.14965 5.80892 8.22962 6.01598C8.30958 6.22304 8.34535 6.44454 8.33464 6.66625C8.34535 6.88796 8.30958 7.10946 8.22962 7.31652C8.14965 7.52358 8.02726 7.71163 7.8703 7.86858C7.71335 8.02554 7.5253 8.14793 7.31824 8.22789C7.11118 8.30786 6.88968 8.34363 6.66797 8.33292ZM3.33464 14.9996C3.33464 14.3365 3.59803 13.7007 4.06687 13.2318C4.53571 12.763 5.17159 12.4996 5.83464 12.4996H7.5013C8.16434 12.4996 8.80023 12.763 9.26907 13.2318C9.73791 13.7007 10.0013 14.3365 10.0013 14.9996V15.8329H11.668V14.9996C11.668 14.4524 11.5602 13.9106 11.3508 13.4051C11.1414 12.8995 10.8345 12.4402 10.4476 12.0533C10.0607 11.6664 9.60134 11.3595 9.09582 11.1501C8.59029 10.9407 8.04848 10.8329 7.5013 10.8329H5.83464C4.72957 10.8329 3.66976 11.2719 2.88836 12.0533C2.10696 12.8347 1.66797 13.8945 1.66797 14.9996V15.8329H3.33464V14.9996Z" fill="#040405"/>
</svg>
