<svg xmlns="http://www.w3.org/2000/svg" width="36" height="36" viewBox="0 0 36 36" fill="none">
  <path fill-rule="evenodd" clip-rule="evenodd" d="M10.4561 8.40102C10.1867 8.14079 9.82583 7.9968 9.45127 8.00005C9.0767 8.00331 8.7184 8.15355 8.45353 8.41842C8.18866 8.68329 8.03842 9.04159 8.03516 9.41616C8.03191 9.79072 8.1759 10.1516 8.43613 10.421L15.9976 17.9824L8.43613 25.5439C8.29968 25.6757 8.19085 25.8333 8.11598 26.0076C8.04111 26.1819 8.0017 26.3693 8.00005 26.559C7.99841 26.7487 8.03455 26.9368 8.10638 27.1124C8.17821 27.2879 8.28429 27.4474 8.41842 27.5816C8.55255 27.7157 8.71205 27.8218 8.88762 27.8936C9.06319 27.9654 9.2513 28.0016 9.44099 27.9999C9.63067 27.9983 9.81813 27.9589 9.99242 27.884C10.1667 27.8091 10.3243 27.7003 10.4561 27.5639L18.0176 20.0024L25.579 27.5639C25.8484 27.8241 26.2093 27.9681 26.5838 27.9648C26.9584 27.9616 27.3167 27.8113 27.5816 27.5465C27.8465 27.2816 27.9967 26.9233 27.9999 26.5487C28.0032 26.1742 27.8592 25.8133 27.599 25.5439L20.0376 17.9824L27.599 10.421C27.8592 10.1516 28.0032 9.79072 27.9999 9.41616C27.9967 9.04159 27.8465 8.68329 27.5816 8.41842C27.3167 8.15355 26.9584 8.00331 26.5838 8.00005C26.2093 7.9968 25.8484 8.14079 25.579 8.40102L18.0176 15.9624L10.4561 8.40102Z" fill="#040405"/>
  <path d="M26.5838 8.00005C26.2093 7.9968 25.8484 8.14079 25.579 8.40102L18.0176 15.9624L10.4561 8.40102C10.1867 8.14079 9.82583 7.9968 9.45127 8.00005C9.0767 8.00331 8.7184 8.15355 8.45353 8.41842C8.18866 8.68329 8.03842 9.04159 8.03516 9.41616C8.03191 9.79072 8.1759 10.1516 8.43613 10.421L15.9976 17.9824L8.43613 25.5439C8.29968 25.6757 8.19085 25.8333 8.11598 26.0076C8.04111 26.1819 8.0017 26.3693 8.00005 26.559C7.99841 26.7487 8.03455 26.9368 8.10638 27.1124C8.17821 27.2879 8.28429 27.4474 8.41842 27.5816C8.55255 27.7157 8.71205 27.8218 8.88762 27.8936C9.06319 27.9654 9.2513 28.0016 9.44099 27.9999C9.63067 27.9983 9.81813 27.9589 9.99242 27.884C10.1667 27.8091 10.3243 27.7003 10.4561 27.5639L18.0176 20.0024L25.579 27.5639C25.8484 27.8241 26.2093 27.9681 26.5838 27.9648C26.9584 27.9616 27.3167 27.8113 27.5816 27.5465C27.8465 27.2816 27.9967 26.9233 27.9999 26.5487C28.0032 26.1742 27.8592 25.8133 27.599 25.5439L20.0376 17.9824L27.599 10.421C27.8592 10.1516 28.0032 9.79072 27.9999 9.41616C27.9967 9.04159 27.8465 8.68329 27.5816 8.41842C27.3167 8.15355 26.9584 8.00331 26.5838 8.00005Z" fill="#040405"/>
</svg>
