<svg xmlns="http://www.w3.org/2000/svg" width="24" height="24" viewBox="0 0 24 24" fill="none">
  <path fill-rule="evenodd" clip-rule="evenodd" d="M9.89605 2C8.47736 2.00012 7.07928 2.33949 5.81844 2.9898C4.5576 3.64011 3.47056 4.5825 2.64802 5.73835C1.82547 6.8942 1.29128 8.22998 1.09 9.63426C0.888721 11.0385 1.02619 12.4706 1.49095 13.8109C1.95571 15.1513 2.73427 16.361 3.76169 17.3393C4.7891 18.3176 6.03557 19.036 7.3971 19.4346C8.75864 19.8331 10.1958 19.9004 11.5886 19.6306C12.9813 19.3609 14.2894 18.7619 15.4037 17.8839L19.2262 21.7062C19.4236 21.8968 19.688 22.0023 19.9624 22C20.2368 21.9976 20.4994 21.8875 20.6934 21.6934C20.8875 21.4994 20.9976 21.2369 21 20.9625C21.0023 20.688 20.8968 20.4236 20.7062 20.2262L16.8837 16.4039C17.9178 15.0921 18.5617 13.5156 18.7417 11.8549C18.9216 10.1942 18.6304 8.51642 17.9013 7.01352C17.1722 5.51061 16.0347 4.24333 14.619 3.35669C13.2033 2.47005 11.5665 1.99989 9.89605 2ZM3.09261 10.8965C3.09261 9.09215 3.8094 7.36173 5.08529 6.08589C6.36118 4.81005 8.09166 4.09329 9.89605 4.09329C11.7004 4.09329 13.4309 4.81005 14.7068 6.08589C15.9827 7.36173 16.6995 9.09215 16.6995 10.8965C16.6995 12.7008 15.9827 14.4312 14.7068 15.707C13.4309 16.9829 11.7004 17.6996 9.89605 17.6996C8.09166 17.6996 6.36118 16.9829 5.08529 15.707C3.8094 14.4312 3.09261 12.7008 3.09261 10.8965Z" fill="#979CA5"/>
</svg>
