<svg width="24" height="24" viewBox="0 0 24 24" fill="none" xmlns="http://www.w3.org/2000/svg">
<path d="M13.5066 17.452L10.4009 20.5587C9.478 21.4816 8.22624 22 6.92108 22C5.61595 21.9999 4.36412 21.4816 3.44125 20.5587C2.5184 19.6358 2 18.3841 2 17.0789C2 15.7738 2.5184 14.522 3.44125 13.5991L6.54801 10.4934L7.70229 11.6477L4.59553 14.7534C3.97884 15.3701 3.63257 16.2067 3.63257 17.0789C3.63257 17.9511 3.97884 18.7877 4.59553 19.4045C5.21223 20.0212 6.04894 20.3674 6.92108 20.3674C7.79326 20.3674 8.62989 20.0212 9.24664 19.4045L12.3523 16.2977L13.5066 17.452ZM15.3294 9.82271L9.82165 15.3305L8.66738 14.1762L14.1752 8.66844L15.3294 9.82271ZM20.3674 6.92108C20.3674 6.48944 20.2828 6.06145 20.1177 5.66265C19.9524 5.26373 19.7098 4.90084 19.4045 4.59553C19.0992 4.29032 18.7372 4.04755 18.3384 3.88234C17.9396 3.71714 17.5117 3.6326 17.08 3.63257C16.208 3.63257 15.371 3.97891 14.7544 4.59553L11.6477 7.70123L10.4934 6.54695L13.6001 3.44125C14.5229 2.51847 15.775 2 17.08 2C17.7259 2.00004 18.3656 2.12702 18.9623 2.37413C19.5593 2.62139 20.1019 2.98439 20.5587 3.44125C21.0157 3.89817 21.3786 4.44069 21.6259 5.03768C21.8731 5.63462 22 6.27497 22 6.92108C21.9999 7.56701 21.873 8.20665 21.6259 8.80342C21.4095 9.32582 21.1045 9.80637 20.7256 10.2245L20.5587 10.3999L17.4541 13.5066L16.2988 12.3523L19.4045 9.24558L19.6213 9.00643C19.8261 8.7569 19.9937 8.47777 20.1177 8.17846C20.2827 7.77981 20.3674 7.35254 20.3674 6.92108Z" fill="black"/>
</svg>
