<svg width="24" height="24" viewBox="0 0 24 24" fill="none" xmlns="http://www.w3.org/2000/svg">
<path fill-rule="evenodd" clip-rule="evenodd" d="M7.88496 6.76388C7.73799 6.62193 7.54114 6.54338 7.33682 6.54516C7.1325 6.54693 6.93706 6.62889 6.79257 6.77337C6.64809 6.91785 6.56614 7.1133 6.56436 7.31762C6.56259 7.52194 6.64113 7.71878 6.78308 7.86575L10.9077 11.9904L6.78308 16.115C6.70865 16.1869 6.64929 16.2729 6.60845 16.3679C6.56761 16.463 6.54611 16.5653 6.54521 16.6687C6.54431 16.7722 6.56403 16.8748 6.60321 16.9706C6.64239 17.0664 6.70026 17.1534 6.77342 17.2265C6.84659 17.2997 6.9336 17.3576 7.02936 17.3967C7.12513 17.4359 7.22775 17.4556 7.33121 17.4547C7.43468 17.4538 7.53694 17.4324 7.63201 17.3915C7.72708 17.3507 7.81307 17.2913 7.88496 17.2169L12.0096 13.0923L16.1342 17.2169C16.2812 17.3588 16.478 17.4374 16.6823 17.4356C16.8867 17.4338 17.0821 17.3519 17.2266 17.2074C17.3711 17.0629 17.453 16.8675 17.4548 16.6631C17.4566 16.4588 17.378 16.262 17.2361 16.115L13.1115 11.9904L17.2361 7.86575C17.378 7.71878 17.4566 7.52194 17.4548 7.31762C17.453 7.1133 17.3711 6.91785 17.2266 6.77337C17.0821 6.62889 16.8867 6.54693 16.6823 6.54516C16.478 6.54338 16.2812 6.62193 16.1342 6.76388L12.0096 10.8885L7.88496 6.76388Z" fill="#040405"/>
<path d="M16.6877 6.00005C17.0348 6.00324 17.3674 6.14168 17.6129 6.38714C17.8583 6.6326 17.9968 6.96516 17.9999 7.31226C18.003 7.65945 17.8699 7.99467 17.6288 8.24448L13.8822 11.9893L17.6288 15.736C17.8701 15.9858 18.003 16.3209 17.9999 16.6682C17.9969 17.0154 17.8583 17.3478 17.6129 17.5933C17.3674 17.8388 17.0348 17.9772 16.6877 17.9804C16.3405 17.9834 16.0054 17.8505 15.7555 17.6093L12.0089 13.8627L8.27111 17.6022L8.26934 17.6004C8.14839 17.724 8.00565 17.8251 7.84673 17.8934C7.68531 17.9626 7.51098 17.9984 7.33534 18C7.15964 18.0014 6.9848 17.9688 6.82218 17.9023C6.65949 17.8357 6.51144 17.7372 6.38714 17.6129C6.26284 17.4886 6.16431 17.3405 6.09771 17.1778C6.03117 17.0152 5.9986 16.8404 6.00005 16.6647C6.00157 16.489 6.03736 16.3147 6.10659 16.1533C6.17502 15.994 6.27559 15.85 6.39957 15.7289L10.1356 11.9893L6.39069 8.24448C6.14947 7.99465 6.01656 7.65954 6.01958 7.31226C6.02277 6.96516 6.16121 6.6326 6.40667 6.38714C6.6522 6.14171 6.98464 6.00314 7.33179 6.00005C7.59227 5.99779 7.8458 6.07216 8.06159 6.21135L8.26401 6.37116L12.0089 10.116L15.7555 6.37116C16.0053 6.13006 16.3406 5.99703 16.6877 6.00005ZM16.6823 6.54516C16.478 6.54338 16.2812 6.62193 16.1342 6.76388L12.0096 10.8885L7.88496 6.76388C7.73799 6.62193 7.54114 6.54338 7.33682 6.54516C7.1325 6.54693 6.93706 6.62889 6.79257 6.77337C6.64809 6.91785 6.56614 7.1133 6.56436 7.31762C6.56259 7.52194 6.64113 7.71878 6.78308 7.86575L10.9077 11.9904L6.78308 16.115C6.70865 16.1869 6.64929 16.2729 6.60845 16.3679C6.56761 16.463 6.54611 16.5653 6.54521 16.6687C6.54431 16.7722 6.56403 16.8748 6.60321 16.9706C6.64239 17.0664 6.70026 17.1534 6.77342 17.2265C6.84659 17.2997 6.9336 17.3576 7.02936 17.3967C7.12513 17.4359 7.22775 17.4556 7.33121 17.4547C7.43468 17.4538 7.53694 17.4324 7.63201 17.3915C7.72708 17.3507 7.81307 17.2913 7.88496 17.2169L12.0096 13.0923L16.1342 17.2169C16.2812 17.3588 16.478 17.4374 16.6823 17.4356C16.8867 17.4338 17.0821 17.3519 17.2266 17.2074C17.3711 17.0629 17.453 16.8675 17.4548 16.6631C17.4566 16.4588 17.378 16.262 17.2361 16.115L13.1115 11.9904L17.2361 7.86575C17.378 7.71878 17.4566 7.52194 17.4548 7.31762C17.453 7.1133 17.3711 6.91785 17.2266 6.77337C17.0821 6.62889 16.8867 6.54693 16.6823 6.54516Z" fill="#040405"/>
</svg>
