<svg width="24" height="24" viewBox="0 0 24 24" fill="none" xmlns="http://www.w3.org/2000/svg">
<path d="M5.7 19V17.2222H18.3V19H5.7ZM5.7 15.8889L4.5525 8.75556C4.5225 8.75556 4.4886 8.75941 4.4508 8.76711C4.413 8.77482 4.3794 8.77837 4.35 8.77778C3.975 8.77778 3.6564 8.648 3.3942 8.38845C3.132 8.12889 3.0006 7.81422 3 7.44445C2.9994 7.07467 3.1308 6.76 3.3942 6.50045C3.6576 6.24089 3.9762 6.11111 4.35 6.11111C4.7238 6.11111 5.0427 6.24089 5.3067 6.50045C5.5707 6.76 5.7018 7.07467 5.7 7.44445C5.7 7.54815 5.6886 7.64445 5.6658 7.73333C5.643 7.82222 5.6169 7.90371 5.5875 7.97778L8.4 9.22222L11.2125 5.42222C11.0475 5.30371 10.9125 5.14815 10.8075 4.95556C10.7025 4.76296 10.65 4.55556 10.65 4.33334C10.65 3.96296 10.7814 3.648 11.0442 3.38845C11.307 3.12889 11.6256 2.99941 12 3C12.3744 3.00059 12.6933 3.13037 12.9567 3.38934C13.2201 3.6483 13.3512 3.96296 13.35 4.33334C13.35 4.55556 13.2975 4.76296 13.1925 4.95556C13.0875 5.14815 12.9525 5.30371 12.7875 5.42222L15.6 9.22222L18.4125 7.97778C18.3825 7.90371 18.3561 7.82222 18.3333 7.73333C18.3105 7.64445 18.2994 7.54815 18.3 7.44445C18.3 7.07408 18.4314 6.75911 18.6942 6.49956C18.957 6.24 19.2756 6.11052 19.65 6.11111C20.0244 6.11171 20.3433 6.24148 20.6067 6.50045C20.8701 6.75941 21.0012 7.07408 21 7.44445C20.9988 7.81482 20.8677 8.12978 20.6067 8.38933C20.3457 8.64889 20.0268 8.77837 19.65 8.77778C19.62 8.77778 19.5864 8.77422 19.5492 8.76711C19.512 8.76 19.4781 8.75615 19.4475 8.75556L18.3 15.8889H5.7Z" fill="#F9AB00"/>
</svg>
