<svg width="24" height="24" viewBox="0 0 24 24" fill="none" xmlns="http://www.w3.org/2000/svg">
<rect width="23.9997" height="24.0007" rx="11.9999" fill="#979CA5"/>
<path d="M16.2388 6.57617C16.5524 6.57916 16.8529 6.70493 17.0747 6.92676C17.2965 7.14862 17.4214 7.449 17.4243 7.7627C17.427 8.07649 17.3072 8.37964 17.0894 8.60547L13.7017 11.9912L17.0894 15.3789C17.3073 15.6048 17.427 15.9078 17.4243 16.2217C17.4215 16.5354 17.2965 16.8357 17.0747 17.0576C16.8529 17.2794 16.5524 17.4052 16.2388 17.4082C15.9249 17.4109 15.6218 17.2902 15.396 17.0723L12.0083 13.6846L8.62939 17.0654L8.62744 17.0645C8.51817 17.1761 8.38916 17.2674 8.24561 17.3291C8.09967 17.3917 7.94151 17.4244 7.78271 17.4258C7.62398 17.427 7.46577 17.397 7.31885 17.3369C7.17188 17.2767 7.0376 17.1875 6.92529 17.0752C6.81323 16.963 6.7247 16.8293 6.66455 16.6826C6.6044 16.5356 6.57438 16.3766 6.57568 16.2178C6.57712 16.0591 6.60984 15.9017 6.67236 15.7559C6.73423 15.6119 6.82495 15.4815 6.93701 15.3721L10.3149 11.9912L6.9292 8.60547C6.71112 8.3796 6.59053 8.07665 6.59326 7.7627C6.5962 7.44896 6.72198 7.14863 6.94385 6.92676C7.16581 6.70493 7.46598 6.57897 7.77979 6.57617C8.01528 6.57413 8.24485 6.64174 8.43994 6.76758L8.62256 6.91211L12.0083 10.2979L15.396 6.91211C15.6218 6.69425 15.925 6.57345 16.2388 6.57617Z" fill="#F9F9FA"/>
</svg>
