<svg width="17" height="13" viewBox="0 0 17 13" fill="none" xmlns="http://www.w3.org/2000/svg">
<path d="M10 5.83422H16.6667V7.50088H10V5.83422ZM5 0.000883816C4.55945 -0.0093789 4.1214 0.0698267 3.71235 0.233709C3.30329 0.397592 2.93172 0.642747 2.62013 0.954344C2.30853 1.26594 2.06337 1.63751 1.89949 2.04656C1.73561 2.45562 1.6564 2.89367 1.66667 3.33422C1.6564 3.77476 1.73561 4.21281 1.89949 4.62187C2.06337 5.03093 2.30853 5.40249 2.62013 5.71409C2.93172 6.02569 3.30329 6.27084 3.71235 6.43473C4.1214 6.59861 4.55945 6.67781 5 6.66755C5.44055 6.67781 5.8786 6.59861 6.28765 6.43473C6.69671 6.27084 7.06828 6.02569 7.37987 5.71409C7.69147 5.40249 7.93663 5.03093 8.10051 4.62187C8.26439 4.21281 8.3436 3.77476 8.33333 3.33422C8.3436 2.89367 8.26439 2.45562 8.10051 2.04656C7.93663 1.63751 7.69147 1.26594 7.37987 0.954344C7.06828 0.642747 6.69671 0.397592 6.28765 0.233709C5.8786 0.0698267 5.44055 -0.0093789 5 0.000883816ZM5 5.00088C4.77829 5.0116 4.55679 4.97583 4.34973 4.89586C4.14267 4.8159 3.95462 4.69351 3.79766 4.53655C3.64071 4.3796 3.51832 4.19155 3.43835 3.98449C3.35839 3.77742 3.32262 3.55593 3.33333 3.33422C3.32262 3.11251 3.35839 2.89101 3.43835 2.68395C3.51832 2.47688 3.64071 2.28884 3.79766 2.13188C3.95462 1.97493 4.14267 1.85254 4.34973 1.77257C4.55679 1.69261 4.77829 1.65683 5 1.66755C5.22171 1.65683 5.44321 1.69261 5.65027 1.77257C5.85733 1.85254 6.04538 1.97493 6.20234 2.13188C6.35929 2.28884 6.48168 2.47688 6.56165 2.68395C6.64161 2.89101 6.67738 3.11251 6.66667 3.33422C6.67738 3.55593 6.64161 3.77742 6.56165 3.98449C6.48168 4.19155 6.35929 4.3796 6.20234 4.53655C6.04538 4.69351 5.85733 4.8159 5.65027 4.89586C5.44321 4.97583 5.22171 5.0116 5 5.00088ZM1.66667 11.6676C1.66667 11.0045 1.93006 10.3686 2.3989 9.89978C2.86774 9.43094 3.50363 9.16755 4.16667 9.16755H5.83333C6.49637 9.16755 7.13226 9.43094 7.6011 9.89978C8.06994 10.3686 8.33333 11.0045 8.33333 11.6676V12.5009H10V11.6676C10 11.1204 9.89223 10.5786 9.68283 10.073C9.47344 9.56751 9.16652 9.10818 8.77961 8.72127C8.3927 8.33436 7.93337 8.02745 7.42785 7.81805C6.92232 7.60866 6.38051 7.50088 5.83333 7.50088H4.16667C3.0616 7.50088 2.00179 7.93987 1.22039 8.72127C0.438987 9.50267 0 10.5625 0 11.6676V12.5009H1.66667V11.6676Z" fill="#040405"/>
</svg>
